<svg xmlns="http://www.w3.org/2000/svg" xmlns:xlink="http://www.w3.org/1999/xlink" contentStyleType="text/css" height="545px" preserveAspectRatio="none" style="width:630px;height:545px;background:#FFFFFF;" version="1.1" viewBox="0 0 630 545" width="630px" zoomAndPan="magnify"><defs/><g><!--class Sistema_Monitoring--><g id="elem_Sistema_Monitoring"><rect codeLine="1" fill="#F1F1F1" height="48" id="Sistema_Monitoring" rx="2.5" ry="2.5" style="stroke:#181818;stroke-width:0.5;" width="167" x="139" y="7"/><ellipse cx="154" cy="23" fill="#ADD1B2" rx="11" ry="11" style="stroke:#181818;stroke-width:1.0;"/><path d="M156.9688,28.6406 Q156.3906,28.9375 155.75,29.0781 Q155.1094,29.2344 154.4063,29.2344 Q151.9063,29.2344 150.5781,27.5938 Q149.2656,25.9375 149.2656,22.8125 Q149.2656,19.6875 150.5781,18.0313 Q151.9063,16.375 154.4063,16.375 Q155.1094,16.375 155.75,16.5313 Q156.4063,16.6875 156.9688,16.9844 L156.9688,19.7031 Q156.3438,19.125 155.75,18.8594 Q155.1563,18.5781 154.5313,18.5781 Q153.1875,18.5781 152.5,19.6563 Q151.8125,20.7188 151.8125,22.8125 Q151.8125,24.9063 152.5,25.9844 Q153.1875,27.0469 154.5313,27.0469 Q155.1563,27.0469 155.75,26.7813 Q156.3438,26.5 156.9688,25.9219 L156.9688,28.6406 Z " fill="#000000"/><text fill="#000000" font-family="sans-serif" font-size="14" lengthAdjust="spacing" textLength="135" x="168" y="27.8467">Sistema_Monitoring</text><line style="stroke:#181818;stroke-width:0.5;" x1="140" x2="305" y1="39" y2="39"/><line style="stroke:#181818;stroke-width:0.5;" x1="140" x2="305" y1="47" y2="47"/></g><!--class Usuario--><g id="elem_Usuario"><rect codeLine="2" fill="#F1F1F1" height="48" id="Usuario" rx="2.5" ry="2.5" style="stroke:#181818;stroke-width:0.5;" width="84" x="374.5" y="7"/><ellipse cx="389.5" cy="23" fill="#ADD1B2" rx="11" ry="11" style="stroke:#181818;stroke-width:1.0;"/><path d="M392.4688,28.6406 Q391.8906,28.9375 391.25,29.0781 Q390.6094,29.2344 389.9063,29.2344 Q387.4063,29.2344 386.0781,27.5938 Q384.7656,25.9375 384.7656,22.8125 Q384.7656,19.6875 386.0781,18.0313 Q387.4063,16.375 389.9063,16.375 Q390.6094,16.375 391.25,16.5313 Q391.9063,16.6875 392.4688,16.9844 L392.4688,19.7031 Q391.8438,19.125 391.25,18.8594 Q390.6563,18.5781 390.0313,18.5781 Q388.6875,18.5781 388,19.6563 Q387.3125,20.7188 387.3125,22.8125 Q387.3125,24.9063 388,25.9844 Q388.6875,27.0469 390.0313,27.0469 Q390.6563,27.0469 391.25,26.7813 Q391.8438,26.5 392.4688,25.9219 L392.4688,28.6406 Z " fill="#000000"/><text fill="#000000" font-family="sans-serif" font-size="14" lengthAdjust="spacing" textLength="52" x="403.5" y="27.8467">Usuario</text><line style="stroke:#181818;stroke-width:0.5;" x1="375.5" x2="457.5" y1="39" y2="39"/><line style="stroke:#181818;stroke-width:0.5;" x1="375.5" x2="457.5" y1="47" y2="47"/></g><!--class Permisos--><g id="elem_Permisos"><rect codeLine="3" fill="#F1F1F1" height="48" id="Permisos" rx="2.5" ry="2.5" style="stroke:#181818;stroke-width:0.5;" width="96" x="527.5" y="7"/><ellipse cx="542.5" cy="23" fill="#ADD1B2" rx="11" ry="11" style="stroke:#181818;stroke-width:1.0;"/><path d="M545.4688,28.6406 Q544.8906,28.9375 544.25,29.0781 Q543.6094,29.2344 542.9063,29.2344 Q540.4063,29.2344 539.0781,27.5938 Q537.7656,25.9375 537.7656,22.8125 Q537.7656,19.6875 539.0781,18.0313 Q540.4063,16.375 542.9063,16.375 Q543.6094,16.375 544.25,16.5313 Q544.9063,16.6875 545.4688,16.9844 L545.4688,19.7031 Q544.8438,19.125 544.25,18.8594 Q543.6563,18.5781 543.0313,18.5781 Q541.6875,18.5781 541,19.6563 Q540.3125,20.7188 540.3125,22.8125 Q540.3125,24.9063 541,25.9844 Q541.6875,27.0469 543.0313,27.0469 Q543.6563,27.0469 544.25,26.7813 Q544.8438,26.5 545.4688,25.9219 L545.4688,28.6406 Z " fill="#000000"/><text fill="#000000" font-family="sans-serif" font-size="14" lengthAdjust="spacing" textLength="64" x="556.5" y="27.8467">Permisos</text><line style="stroke:#181818;stroke-width:0.5;" x1="528.5" x2="622.5" y1="39" y2="39"/><line style="stroke:#181818;stroke-width:0.5;" x1="528.5" x2="622.5" y1="47" y2="47"/></g><!--class Servicios--><g id="elem_Servicios"><rect codeLine="4" fill="#F1F1F1" height="48" id="Servicios" rx="2.5" ry="2.5" style="stroke:#181818;stroke-width:0.5;" width="93" x="59" y="132"/><ellipse cx="74" cy="148" fill="#ADD1B2" rx="11" ry="11" style="stroke:#181818;stroke-width:1.0;"/><path d="M76.9688,153.6406 Q76.3906,153.9375 75.75,154.0781 Q75.1094,154.2344 74.4063,154.2344 Q71.9063,154.2344 70.5781,152.5938 Q69.2656,150.9375 69.2656,147.8125 Q69.2656,144.6875 70.5781,143.0313 Q71.9063,141.375 74.4063,141.375 Q75.1094,141.375 75.75,141.5313 Q76.4063,141.6875 76.9688,141.9844 L76.9688,144.7031 Q76.3438,144.125 75.75,143.8594 Q75.1563,143.5781 74.5313,143.5781 Q73.1875,143.5781 72.5,144.6563 Q71.8125,145.7188 71.8125,147.8125 Q71.8125,149.9063 72.5,150.9844 Q73.1875,152.0469 74.5313,152.0469 Q75.1563,152.0469 75.75,151.7813 Q76.3438,151.5 76.9688,150.9219 L76.9688,153.6406 Z " fill="#000000"/><text fill="#000000" font-family="sans-serif" font-size="14" lengthAdjust="spacing" textLength="61" x="88" y="152.8467">Servicios</text><line style="stroke:#181818;stroke-width:0.5;" x1="60" x2="151" y1="164" y2="164"/><line style="stroke:#181818;stroke-width:0.5;" x1="60" x2="151" y1="172" y2="172"/></g><!--class Metrica--><g id="elem_Metrica"><rect codeLine="5" fill="#F1F1F1" height="48" id="Metrica" rx="2.5" ry="2.5" style="stroke:#181818;stroke-width:0.5;" width="82" x="170.5" y="257"/><ellipse cx="185.5" cy="273" fill="#ADD1B2" rx="11" ry="11" style="stroke:#181818;stroke-width:1.0;"/><path d="M188.4688,278.6406 Q187.8906,278.9375 187.25,279.0781 Q186.6094,279.2344 185.9063,279.2344 Q183.4063,279.2344 182.0781,277.5938 Q180.7656,275.9375 180.7656,272.8125 Q180.7656,269.6875 182.0781,268.0313 Q183.4063,266.375 185.9063,266.375 Q186.6094,266.375 187.25,266.5313 Q187.9063,266.6875 188.4688,266.9844 L188.4688,269.7031 Q187.8438,269.125 187.25,268.8594 Q186.6563,268.5781 186.0313,268.5781 Q184.6875,268.5781 184,269.6563 Q183.3125,270.7188 183.3125,272.8125 Q183.3125,274.9063 184,275.9844 Q184.6875,277.0469 186.0313,277.0469 Q186.6563,277.0469 187.25,276.7813 Q187.8438,276.5 188.4688,275.9219 L188.4688,278.6406 Z " fill="#000000"/><text fill="#000000" font-family="sans-serif" font-size="14" lengthAdjust="spacing" textLength="50" x="199.5" y="277.8467">Metrica</text><line style="stroke:#181818;stroke-width:0.5;" x1="171.5" x2="251.5" y1="289" y2="289"/><line style="stroke:#181818;stroke-width:0.5;" x1="171.5" x2="251.5" y1="297" y2="297"/></g><!--class Recursos--><g id="elem_Recursos"><rect codeLine="6" fill="#F1F1F1" height="48" id="Recursos" rx="2.5" ry="2.5" style="stroke:#181818;stroke-width:0.5;" width="98" x="18.5" y="365"/><ellipse cx="33.5" cy="381" fill="#ADD1B2" rx="11" ry="11" style="stroke:#181818;stroke-width:1.0;"/><path d="M36.4688,386.6406 Q35.8906,386.9375 35.25,387.0781 Q34.6094,387.2344 33.9063,387.2344 Q31.4063,387.2344 30.0781,385.5938 Q28.7656,383.9375 28.7656,380.8125 Q28.7656,377.6875 30.0781,376.0313 Q31.4063,374.375 33.9063,374.375 Q34.6094,374.375 35.25,374.5313 Q35.9063,374.6875 36.4688,374.9844 L36.4688,377.7031 Q35.8438,377.125 35.25,376.8594 Q34.6563,376.5781 34.0313,376.5781 Q32.6875,376.5781 32,377.6563 Q31.3125,378.7188 31.3125,380.8125 Q31.3125,382.9063 32,383.9844 Q32.6875,385.0469 34.0313,385.0469 Q34.6563,385.0469 35.25,384.7813 Q35.8438,384.5 36.4688,383.9219 L36.4688,386.6406 Z " fill="#000000"/><text fill="#000000" font-family="sans-serif" font-size="14" lengthAdjust="spacing" textLength="66" x="47.5" y="385.8467">Recursos</text><line style="stroke:#181818;stroke-width:0.5;" x1="19.5" x2="115.5" y1="397" y2="397"/><line style="stroke:#181818;stroke-width:0.5;" x1="19.5" x2="115.5" y1="405" y2="405"/></g><!--class Rendimiento--><g id="elem_Rendimiento"><rect codeLine="7" fill="#F1F1F1" height="48" id="Rendimiento" rx="2.5" ry="2.5" style="stroke:#181818;stroke-width:0.5;" width="120" x="151.5" y="365"/><ellipse cx="166.5" cy="381" fill="#ADD1B2" rx="11" ry="11" style="stroke:#181818;stroke-width:1.0;"/><path d="M169.4688,386.6406 Q168.8906,386.9375 168.25,387.0781 Q167.6094,387.2344 166.9063,387.2344 Q164.4063,387.2344 163.0781,385.5938 Q161.7656,383.9375 161.7656,380.8125 Q161.7656,377.6875 163.0781,376.0313 Q164.4063,374.375 166.9063,374.375 Q167.6094,374.375 168.25,374.5313 Q168.9063,374.6875 169.4688,374.9844 L169.4688,377.7031 Q168.8438,377.125 168.25,376.8594 Q167.6563,376.5781 167.0313,376.5781 Q165.6875,376.5781 165,377.6563 Q164.3125,378.7188 164.3125,380.8125 Q164.3125,382.9063 165,383.9844 Q165.6875,385.0469 167.0313,385.0469 Q167.6563,385.0469 168.25,384.7813 Q168.8438,384.5 169.4688,383.9219 L169.4688,386.6406 Z " fill="#000000"/><text fill="#000000" font-family="sans-serif" font-size="14" lengthAdjust="spacing" textLength="88" x="180.5" y="385.8467">Rendimiento</text><line style="stroke:#181818;stroke-width:0.5;" x1="152.5" x2="270.5" y1="397" y2="397"/><line style="stroke:#181818;stroke-width:0.5;" x1="152.5" x2="270.5" y1="405" y2="405"/></g><!--class Custom--><g id="elem_Custom"><rect codeLine="8" fill="#F1F1F1" height="48" id="Custom" rx="2.5" ry="2.5" style="stroke:#181818;stroke-width:0.5;" width="86" x="306.5" y="365"/><ellipse cx="321.5" cy="381" fill="#ADD1B2" rx="11" ry="11" style="stroke:#181818;stroke-width:1.0;"/><path d="M324.4688,386.6406 Q323.8906,386.9375 323.25,387.0781 Q322.6094,387.2344 321.9063,387.2344 Q319.4063,387.2344 318.0781,385.5938 Q316.7656,383.9375 316.7656,380.8125 Q316.7656,377.6875 318.0781,376.0313 Q319.4063,374.375 321.9063,374.375 Q322.6094,374.375 323.25,374.5313 Q323.9063,374.6875 324.4688,374.9844 L324.4688,377.7031 Q323.8438,377.125 323.25,376.8594 Q322.6563,376.5781 322.0313,376.5781 Q320.6875,376.5781 320,377.6563 Q319.3125,378.7188 319.3125,380.8125 Q319.3125,382.9063 320,383.9844 Q320.6875,385.0469 322.0313,385.0469 Q322.6563,385.0469 323.25,384.7813 Q323.8438,384.5 324.4688,383.9219 L324.4688,386.6406 Z " fill="#000000"/><text fill="#000000" font-family="sans-serif" font-size="14" lengthAdjust="spacing" textLength="54" x="335.5" y="385.8467">Custom</text><line style="stroke:#181818;stroke-width:0.5;" x1="307.5" x2="391.5" y1="397" y2="397"/><line style="stroke:#181818;stroke-width:0.5;" x1="307.5" x2="391.5" y1="405" y2="405"/></g><!--class Log_Sistema--><g id="elem_Log_Sistema"><rect codeLine="9" fill="#F1F1F1" height="48" id="Log_Sistema" rx="2.5" ry="2.5" style="stroke:#181818;stroke-width:0.5;" width="119" x="308" y="132"/><ellipse cx="323" cy="148" fill="#ADD1B2" rx="11" ry="11" style="stroke:#181818;stroke-width:1.0;"/><path d="M325.9688,153.6406 Q325.3906,153.9375 324.75,154.0781 Q324.1094,154.2344 323.4063,154.2344 Q320.9063,154.2344 319.5781,152.5938 Q318.2656,150.9375 318.2656,147.8125 Q318.2656,144.6875 319.5781,143.0313 Q320.9063,141.375 323.4063,141.375 Q324.1094,141.375 324.75,141.5313 Q325.4063,141.6875 325.9688,141.9844 L325.9688,144.7031 Q325.3438,144.125 324.75,143.8594 Q324.1563,143.5781 323.5313,143.5781 Q322.1875,143.5781 321.5,144.6563 Q320.8125,145.7188 320.8125,147.8125 Q320.8125,149.9063 321.5,150.9844 Q322.1875,152.0469 323.5313,152.0469 Q324.1563,152.0469 324.75,151.7813 Q325.3438,151.5 325.9688,150.9219 L325.9688,153.6406 Z " fill="#000000"/><text fill="#000000" font-family="sans-serif" font-size="14" lengthAdjust="spacing" textLength="87" x="337" y="152.8467">Log_Sistema</text><line style="stroke:#181818;stroke-width:0.5;" x1="309" x2="426" y1="164" y2="164"/><line style="stroke:#181818;stroke-width:0.5;" x1="309" x2="426" y1="172" y2="172"/></g><!--class Log_Servicio--><g id="elem_Log_Servicio"><rect codeLine="10" fill="#F1F1F1" height="48" id="Log_Servicio" rx="2.5" ry="2.5" style="stroke:#181818;stroke-width:0.5;" width="117" x="7" y="257"/><ellipse cx="22" cy="273" fill="#ADD1B2" rx="11" ry="11" style="stroke:#181818;stroke-width:1.0;"/><path d="M24.9688,278.6406 Q24.3906,278.9375 23.75,279.0781 Q23.1094,279.2344 22.4063,279.2344 Q19.9063,279.2344 18.5781,277.5938 Q17.2656,275.9375 17.2656,272.8125 Q17.2656,269.6875 18.5781,268.0313 Q19.9063,266.375 22.4063,266.375 Q23.1094,266.375 23.75,266.5313 Q24.4063,266.6875 24.9688,266.9844 L24.9688,269.7031 Q24.3438,269.125 23.75,268.8594 Q23.1563,268.5781 22.5313,268.5781 Q21.1875,268.5781 20.5,269.6563 Q19.8125,270.7188 19.8125,272.8125 Q19.8125,274.9063 20.5,275.9844 Q21.1875,277.0469 22.5313,277.0469 Q23.1563,277.0469 23.75,276.7813 Q24.3438,276.5 24.9688,275.9219 L24.9688,278.6406 Z " fill="#000000"/><text fill="#000000" font-family="sans-serif" font-size="14" lengthAdjust="spacing" textLength="85" x="36" y="277.8467">Log_Servicio</text><line style="stroke:#181818;stroke-width:0.5;" x1="8" x2="123" y1="289" y2="289"/><line style="stroke:#181818;stroke-width:0.5;" x1="8" x2="123" y1="297" y2="297"/></g><!--class Estado--><g id="elem_Estado"><rect codeLine="11" fill="#F1F1F1" height="48" id="Estado" rx="2.5" ry="2.5" style="stroke:#181818;stroke-width:0.5;" width="80" x="309.5" y="490"/><ellipse cx="324.5" cy="506" fill="#ADD1B2" rx="11" ry="11" style="stroke:#181818;stroke-width:1.0;"/><path d="M327.4688,511.6406 Q326.8906,511.9375 326.25,512.0781 Q325.6094,512.2344 324.9063,512.2344 Q322.4063,512.2344 321.0781,510.5938 Q319.7656,508.9375 319.7656,505.8125 Q319.7656,502.6875 321.0781,501.0313 Q322.4063,499.375 324.9063,499.375 Q325.6094,499.375 326.25,499.5313 Q326.9063,499.6875 327.4688,499.9844 L327.4688,502.7031 Q326.8438,502.125 326.25,501.8594 Q325.6563,501.5781 325.0313,501.5781 Q323.6875,501.5781 323,502.6563 Q322.3125,503.7188 322.3125,505.8125 Q322.3125,507.9063 323,508.9844 Q323.6875,510.0469 325.0313,510.0469 Q325.6563,510.0469 326.25,509.7813 Q326.8438,509.5 327.4688,508.9219 L327.4688,511.6406 Z " fill="#000000"/><text fill="#000000" font-family="sans-serif" font-size="14" lengthAdjust="spacing" textLength="48" x="338.5" y="510.8467">Estado</text><line style="stroke:#181818;stroke-width:0.5;" x1="310.5" x2="388.5" y1="522" y2="522"/><line style="stroke:#181818;stroke-width:0.5;" x1="310.5" x2="388.5" y1="530" y2="530"/></g><!--link Sistema_Monitoring to Usuario--><g id="link_Sistema_Monitoring_Usuario"><path codeLine="14" d="M306.46,31 C329.81,31 348.19,31 368.04,31 " fill="none" id="Sistema_Monitoring-to-Usuario" style="stroke:#181818;stroke-width:1.0;"/><polygon fill="#181818" points="374.04,31,365.04,27,369.04,31,365.04,35,374.04,31" style="stroke:#181818;stroke-width:1.0;"/><text fill="#000000" font-family="sans-serif" font-size="13" lengthAdjust="spacing" textLength="32" x="324.25" y="24.0669">tiene</text></g><!--link Usuario to Sistema_Monitoring--><g id="link_Usuario_Sistema_Monitoring"><path codeLine="16" d="M374.06,46.27 C367.02,48.23 359.74,49.93 352.75,51 C337.71,53.3 327.6674,53.6849 312.1974,52.0649 " fill="none" id="Usuario-to-Sistema_Monitoring" style="stroke:#181818;stroke-width:1.0;"/><polygon fill="#181818" points="306.23,51.44,314.7645,56.3556,311.2028,51.9607,315.5977,48.3991,306.23,51.44" style="stroke:#181818;stroke-width:1.0;"/><text fill="#000000" font-family="sans-serif" font-size="13" lengthAdjust="spacing" textLength="23" x="328.75" y="47.0669">usa</text></g><!--link Usuario to Permisos--><g id="link_Usuario_Permisos"><path codeLine="15" d="M458.69,31 C479.76,31 499.35,31 521.2,31 " fill="none" id="Usuario-to-Permisos" style="stroke:#181818;stroke-width:1.0;"/><polygon fill="#181818" points="527.2,31,518.2,27,522.2,31,518.2,35,527.2,31" style="stroke:#181818;stroke-width:1.0;"/><text fill="#000000" font-family="sans-serif" font-size="13" lengthAdjust="spacing" textLength="32" x="477" y="24.0669">tiene</text></g><!--link Sistema_Monitoring to Servicios--><g id="link_Sistema_Monitoring_Servicios"><path codeLine="17" d="M163.32,55.33 C149.68,63.05 136.3,72.85 126.5,85 C115.74,98.33 111.5174,111.1586 108.9574,125.8886 " fill="none" id="Sistema_Monitoring-to-Servicios" style="stroke:#181818;stroke-width:1.0;"/><polygon fill="#181818" points="107.93,131.8,113.412,123.6178,108.7861,126.8738,105.5301,122.248,107.93,131.8" style="stroke:#181818;stroke-width:1.0;"/><text fill="#000000" font-family="sans-serif" font-size="13" lengthAdjust="spacing" textLength="68" x="127.5" y="98.0669">monitoriza</text></g><!--link Sistema_Monitoring to Log_Sistema--><g id="link_Sistema_Monitoring_Log_Sistema"><path codeLine="18" d="M250.11,55.42 C275.92,77.31 309.6445,105.9187 335.4145,127.7787 " fill="none" id="Sistema_Monitoring-to-Log_Sistema" style="stroke:#181818;stroke-width:1.0;"/><polygon fill="#181818" points="339.99,131.66,335.7142,122.7877,336.1771,128.4256,330.5392,128.8884,339.99,131.66" style="stroke:#181818;stroke-width:1.0;"/><text fill="#000000" font-family="sans-serif" font-size="13" lengthAdjust="spacing" textLength="45" x="304.5" y="98.0669">genera</text></g><!--link Sistema_Monitoring to Metrica--><g id="link_Sistema_Monitoring_Metrica"><path codeLine="19" d="M221.47,55.33 C219.37,102.6 214.9057,203.1859 212.8057,250.5559 " fill="none" id="Sistema_Monitoring-to-Metrica" style="stroke:#181818;stroke-width:1.0;"/><polygon fill="#181818" points="212.54,256.55,216.9347,247.736,212.7614,251.5549,208.9425,247.3817,212.54,256.55" style="stroke:#181818;stroke-width:1.0;"/><text fill="#000000" font-family="sans-serif" font-size="13" lengthAdjust="spacing" textLength="48" x="218.5" y="160.5669">obtiene</text></g><!--link Servicios to Metrica--><g id="link_Servicios_Metrica"><path codeLine="21" d="M117.75,180.27 C125.8,194.5 137.12,212.66 149.5,227 C158.66,237.61 165.3909,244.1106 175.8609,252.7906 " fill="none" id="Servicios-to-Metrica" style="stroke:#181818;stroke-width:1.0;"/><polygon fill="#181818" points="180.48,256.62,176.1043,247.7965,176.6308,253.4289,170.9985,253.9553,180.48,256.62" style="stroke:#181818;stroke-width:1.0;"/><text fill="#000000" font-family="sans-serif" font-size="13" lengthAdjust="spacing" textLength="45" x="150.5" y="223.0669">genera</text></g><!--link Servicios to Log_Servicio--><g id="link_Servicios_Log_Servicio"><path codeLine="22" d="M80.79,180.4 C73.45,188.93 66.34,199.17 62.5,210 C57.21,224.9 57.1673,236.7883 59.2873,250.7183 " fill="none" id="Servicios-to-Log_Servicio" style="stroke:#181818;stroke-width:1.0;"/><polygon fill="#181818" points="60.19,256.65,62.7904,247.1506,59.4377,251.7069,54.8814,248.3543,60.19,256.65" style="stroke:#181818;stroke-width:1.0;"/><text fill="#000000" font-family="sans-serif" font-size="13" lengthAdjust="spacing" textLength="45" x="63.5" y="223.0669">genera</text></g><!--reverse link Metrica to Recursos--><g id="link_Metrica_Recursos"><path codeLine="24" d="M165.4057,315.9331 C141.3957,333.6131 123.02,347.13 99.03,364.79 " fill="none" id="Metrica-backto-Recursos" style="stroke:#181818;stroke-width:1.0;"/><polygon fill="none" points="179.9,305.26,161.848,311.1016,168.9633,320.7645,179.9,305.26" style="stroke:#181818;stroke-width:1.0;"/></g><!--reverse link Metrica to Rendimiento--><g id="link_Metrica_Rendimiento"><path codeLine="25" d="M211.5,323.26 C211.5,340.94 211.5,347.13 211.5,364.79 " fill="none" id="Metrica-backto-Rendimiento" style="stroke:#181818;stroke-width:1.0;"/><polygon fill="none" points="211.5,305.26,205.5,323.26,217.5,323.26,211.5,305.26" style="stroke:#181818;stroke-width:1.0;"/></g><!--reverse link Metrica to Custom--><g id="link_Metrica_Custom"><path codeLine="26" d="M256.0532,316.227 C279.0632,333.907 296.29,347.13 319.29,364.79 " fill="none" id="Metrica-backto-Custom" style="stroke:#181818;stroke-width:1.0;"/><polygon fill="none" points="241.78,305.26,252.3976,320.9847,259.7089,311.4693,241.78,305.26" style="stroke:#181818;stroke-width:1.0;"/></g><!--link Custom to Estado--><g id="link_Custom_Estado"><path codeLine="28" d="M349.5,413.42 C349.5,435.31 349.5,461.8 349.5,483.66 " fill="none" id="Custom-to-Estado" style="stroke:#181818;stroke-width:1.0;"/><polygon fill="#181818" points="349.5,489.66,353.5,480.66,349.5,484.66,345.5,480.66,349.5,489.66" style="stroke:#181818;stroke-width:1.0;"/><text fill="#000000" font-family="sans-serif" font-size="13" lengthAdjust="spacing" textLength="32" x="350.5" y="456.0669">tiene</text></g><!--SRC=[TL512iCW4BpxYf1xFb1ABwMt1afApy4Q2GjLmTKUIXzVawpHfCb9PcTsPzmLBuvOt06TLBojZGPdBEYUYP5ueESM3A6Rj0hG8C6xj6yGCEDQEWk24sgay3Q96waxK22rYzFE7frH1AwcRob5NY47AbtGySumnlxp5jKfXYqEHUc2aInPh0GoPjzY0xqnCGWzydBJREY8ln-4YhZFlZxxuT3HXmXsNqsx79JcINbPibn9vc4BGRx1NCLYv_5RLUbEgsewruAWgx7f7NsciwJ5_W00]--></g></svg>